<mxfile host="app.diagrams.net" agent="Mozilla/5.0 (Windows NT 10.0; Win64; x64) AppleWebKit/537.36 (KHTML, like Gecko) Chrome/130.0.0.0 Safari/537.36" version="24.8.3">
  <diagram name="Trang-1" id="vTnmNaCaprrOevz2aImB">
    <mxGraphModel dx="1687" dy="2087" grid="1" gridSize="10" guides="1" tooltips="1" connect="1" arrows="1" fold="1" page="1" pageScale="1" pageWidth="827" pageHeight="1169" math="0" shadow="0">
      <root>
        <mxCell id="0" />
        <mxCell id="1" parent="0" />
        <mxCell id="T8MDqsYerG0h71-dqbjE-1" value="start" style="ellipse;whiteSpace=wrap;html=1;fontStyle=0;fontFamily=Times New Roman;" vertex="1" parent="1">
          <mxGeometry x="30" y="30" width="120" height="80" as="geometry" />
        </mxCell>
        <mxCell id="T8MDqsYerG0h71-dqbjE-2" value="" style="endArrow=classic;html=1;rounded=0;exitX=1;exitY=0.5;exitDx=0;exitDy=0;fontStyle=0;fontFamily=Times New Roman;" edge="1" parent="1" source="T8MDqsYerG0h71-dqbjE-1" target="T8MDqsYerG0h71-dqbjE-3">
          <mxGeometry width="50" height="50" relative="1" as="geometry">
            <mxPoint x="390" y="420" as="sourcePoint" />
            <mxPoint x="240" y="70" as="targetPoint" />
          </mxGeometry>
        </mxCell>
        <mxCell id="T8MDqsYerG0h71-dqbjE-3" value="user input" style="rounded=0;whiteSpace=wrap;html=1;fontStyle=0;fontFamily=Times New Roman;" vertex="1" parent="1">
          <mxGeometry x="190" y="40" width="120" height="60" as="geometry" />
        </mxCell>
        <mxCell id="T8MDqsYerG0h71-dqbjE-4" value="" style="endArrow=classic;html=1;rounded=0;exitX=1;exitY=0.5;exitDx=0;exitDy=0;fontStyle=0;fontFamily=Times New Roman;" edge="1" parent="1" target="T8MDqsYerG0h71-dqbjE-5">
          <mxGeometry width="50" height="50" relative="1" as="geometry">
            <mxPoint x="310" y="70" as="sourcePoint" />
            <mxPoint x="400" y="70" as="targetPoint" />
          </mxGeometry>
        </mxCell>
        <mxCell id="T8MDqsYerG0h71-dqbjE-5" value="refine (NLP)" style="rounded=0;whiteSpace=wrap;html=1;fontStyle=0;fontFamily=Times New Roman;" vertex="1" parent="1">
          <mxGeometry x="350" y="40" width="120" height="60" as="geometry" />
        </mxCell>
        <mxCell id="T8MDqsYerG0h71-dqbjE-6" value="" style="endArrow=classic;html=1;rounded=0;exitX=0.5;exitY=1;exitDx=0;exitDy=0;fontStyle=0;fontFamily=Times New Roman;" edge="1" parent="1" source="T8MDqsYerG0h71-dqbjE-5">
          <mxGeometry width="50" height="50" relative="1" as="geometry">
            <mxPoint x="390" y="420" as="sourcePoint" />
            <mxPoint x="410" y="160" as="targetPoint" />
          </mxGeometry>
        </mxCell>
        <mxCell id="T8MDqsYerG0h71-dqbjE-7" value="user input" style="rounded=0;whiteSpace=wrap;html=1;fontStyle=0;fontFamily=Times New Roman;" vertex="1" parent="1">
          <mxGeometry x="354" y="160" width="120" height="60" as="geometry" />
        </mxCell>
        <mxCell id="T8MDqsYerG0h71-dqbjE-8" value="" style="endArrow=classic;html=1;rounded=0;entryX=0;entryY=0.5;entryDx=0;entryDy=0;fontStyle=0;fontFamily=Times New Roman;" edge="1" parent="1">
          <mxGeometry width="50" height="50" relative="1" as="geometry">
            <mxPoint x="170" y="440" as="sourcePoint" />
            <mxPoint x="364" y="440" as="targetPoint" />
          </mxGeometry>
        </mxCell>
        <mxCell id="T8MDqsYerG0h71-dqbjE-9" value="extract entity database (order)" style="text;html=1;align=center;verticalAlign=middle;whiteSpace=wrap;rounded=0;fontStyle=0;fontFamily=Times New Roman;" vertex="1" parent="1">
          <mxGeometry x="150" y="410" width="220" height="30" as="geometry" />
        </mxCell>
        <mxCell id="T8MDqsYerG0h71-dqbjE-11" value="" style="endArrow=classic;html=1;rounded=0;exitX=0.5;exitY=1;exitDx=0;exitDy=0;entryX=0.5;entryY=0;entryDx=0;entryDy=0;fontStyle=0;fontFamily=Times New Roman;" edge="1" parent="1" source="T8MDqsYerG0h71-dqbjE-7" target="T8MDqsYerG0h71-dqbjE-12">
          <mxGeometry width="50" height="50" relative="1" as="geometry">
            <mxPoint x="390" y="420" as="sourcePoint" />
            <mxPoint x="427.18000000000006" y="297" as="targetPoint" />
          </mxGeometry>
        </mxCell>
        <mxCell id="T8MDqsYerG0h71-dqbjE-12" value="Have an order status inquiry?" style="rhombus;whiteSpace=wrap;html=1;fontStyle=0;fontFamily=Times New Roman;" vertex="1" parent="1">
          <mxGeometry x="324" y="300" width="180" height="80" as="geometry" />
        </mxCell>
        <mxCell id="T8MDqsYerG0h71-dqbjE-14" value="" style="endArrow=classic;html=1;rounded=0;fontStyle=0;fontFamily=Times New Roman;" edge="1" parent="1">
          <mxGeometry width="50" height="50" relative="1" as="geometry">
            <mxPoint x="510" y="340" as="sourcePoint" />
            <mxPoint x="160" y="60" as="targetPoint" />
            <Array as="points">
              <mxPoint x="640" y="340" />
              <mxPoint x="640" y="-80" />
              <mxPoint x="160" y="-80" />
            </Array>
          </mxGeometry>
        </mxCell>
        <mxCell id="T8MDqsYerG0h71-dqbjE-15" value="no" style="text;html=1;align=center;verticalAlign=middle;whiteSpace=wrap;rounded=0;fontStyle=0;fontFamily=Times New Roman;" vertex="1" parent="1">
          <mxGeometry x="540" y="310" width="60" height="30" as="geometry" />
        </mxCell>
        <mxCell id="T8MDqsYerG0h71-dqbjE-17" value="" style="endArrow=classic;html=1;rounded=0;exitX=0.5;exitY=1;exitDx=0;exitDy=0;fontStyle=0;fontFamily=Times New Roman;" edge="1" parent="1" source="T8MDqsYerG0h71-dqbjE-12">
          <mxGeometry width="50" height="50" relative="1" as="geometry">
            <mxPoint x="300" y="420" as="sourcePoint" />
            <mxPoint x="420" y="420" as="targetPoint" />
          </mxGeometry>
        </mxCell>
        <mxCell id="T8MDqsYerG0h71-dqbjE-18" value="Order status" style="rounded=0;whiteSpace=wrap;html=1;fontStyle=0;fontFamily=Times New Roman;" vertex="1" parent="1">
          <mxGeometry x="360" y="420" width="120" height="60" as="geometry" />
        </mxCell>
        <mxCell id="T8MDqsYerG0h71-dqbjE-21" value="Provide information on weather impact on delivery" style="text;html=1;align=center;verticalAlign=middle;whiteSpace=wrap;rounded=0;fontStyle=0;fontFamily=Times New Roman;" vertex="1" parent="1">
          <mxGeometry x="165" y="450" width="190" height="30" as="geometry" />
        </mxCell>
        <mxCell id="T8MDqsYerG0h71-dqbjE-24" value="" style="endArrow=classic;html=1;rounded=0;exitX=0.5;exitY=1;exitDx=0;exitDy=0;fontStyle=0;fontFamily=Times New Roman;" edge="1" parent="1">
          <mxGeometry width="50" height="50" relative="1" as="geometry">
            <mxPoint x="424" y="480" as="sourcePoint" />
            <mxPoint x="424" y="530" as="targetPoint" />
          </mxGeometry>
        </mxCell>
        <mxCell id="T8MDqsYerG0h71-dqbjE-25" value="end" style="ellipse;whiteSpace=wrap;html=1;fontStyle=0;fontFamily=Times New Roman;" vertex="1" parent="1">
          <mxGeometry x="364" y="710" width="120" height="80" as="geometry" />
        </mxCell>
        <mxCell id="T8MDqsYerG0h71-dqbjE-26" value="any other questions?" style="rhombus;whiteSpace=wrap;html=1;fontStyle=0;fontFamily=Times New Roman;" vertex="1" parent="1">
          <mxGeometry x="334" y="530" width="180" height="80" as="geometry" />
        </mxCell>
        <mxCell id="T8MDqsYerG0h71-dqbjE-27" value="" style="endArrow=classic;html=1;rounded=0;entryX=0.5;entryY=0;entryDx=0;entryDy=0;exitX=0.5;exitY=1;exitDx=0;exitDy=0;fontStyle=0;fontFamily=Times New Roman;" edge="1" parent="1" source="T8MDqsYerG0h71-dqbjE-26" target="T8MDqsYerG0h71-dqbjE-25">
          <mxGeometry width="50" height="50" relative="1" as="geometry">
            <mxPoint x="300" y="420" as="sourcePoint" />
            <mxPoint x="350" y="370" as="targetPoint" />
          </mxGeometry>
        </mxCell>
        <mxCell id="T8MDqsYerG0h71-dqbjE-28" value="no" style="text;html=1;align=center;verticalAlign=middle;whiteSpace=wrap;rounded=0;fontStyle=0;fontFamily=Times New Roman;" vertex="1" parent="1">
          <mxGeometry x="430" y="660" width="60" height="30" as="geometry" />
        </mxCell>
        <mxCell id="T8MDqsYerG0h71-dqbjE-29" value="" style="endArrow=classic;html=1;rounded=0;fontStyle=0;fontFamily=Times New Roman;" edge="1" parent="1" target="T8MDqsYerG0h71-dqbjE-30">
          <mxGeometry width="50" height="50" relative="1" as="geometry">
            <mxPoint x="514" y="570" as="sourcePoint" />
            <mxPoint x="600" y="570" as="targetPoint" />
          </mxGeometry>
        </mxCell>
        <mxCell id="T8MDqsYerG0h71-dqbjE-30" value="Answer other questions or instructions" style="rounded=0;whiteSpace=wrap;html=1;fontStyle=0;fontFamily=Times New Roman;" vertex="1" parent="1">
          <mxGeometry x="580" y="540" width="120" height="60" as="geometry" />
        </mxCell>
        <mxCell id="T8MDqsYerG0h71-dqbjE-31" value="yes" style="text;html=1;align=center;verticalAlign=middle;whiteSpace=wrap;rounded=0;fontStyle=0;fontFamily=Times New Roman;" vertex="1" parent="1">
          <mxGeometry x="514" y="540" width="60" height="30" as="geometry" />
        </mxCell>
        <mxCell id="T8MDqsYerG0h71-dqbjE-32" value="" style="endArrow=classic;html=1;rounded=0;fontStyle=0;fontFamily=Times New Roman;" edge="1" parent="1">
          <mxGeometry width="50" height="50" relative="1" as="geometry">
            <mxPoint x="700" y="570" as="sourcePoint" />
            <mxPoint x="420" y="500" as="targetPoint" />
            <Array as="points">
              <mxPoint x="760" y="570" />
              <mxPoint x="760" y="500" />
            </Array>
          </mxGeometry>
        </mxCell>
        <mxCell id="T8MDqsYerG0h71-dqbjE-35" value="yes" style="text;html=1;align=center;verticalAlign=middle;whiteSpace=wrap;rounded=0;fontStyle=0;fontFamily=Times New Roman;" vertex="1" parent="1">
          <mxGeometry x="420" y="380" width="60" height="30" as="geometry" />
        </mxCell>
      </root>
    </mxGraphModel>
  </diagram>
</mxfile>
